<svg width="32" height="32" viewBox="0 0 32 32" fill="none" xmlns="http://www.w3.org/2000/svg">
<circle cx="16" cy="16" r="16" fill="#CB2C2C"/>
<g clip-path="url(#clip0_4022_37013)">
<path d="M16.0004 8.74609C14.5658 8.74609 13.1635 9.17149 11.9707 9.9685C10.7779 10.7655 9.84819 11.8983 9.2992 13.2237C8.75021 14.5491 8.60657 16.0075 8.88644 17.4145C9.16632 18.8215 9.85713 20.1139 10.8715 21.1283C11.8859 22.1427 13.1783 22.8335 14.5854 23.1134C15.9924 23.3933 17.4508 23.2496 18.7761 22.7006C20.1015 22.1516 21.2343 21.222 22.0313 20.0292C22.8283 18.8364 23.2537 17.434 23.2537 15.9994C23.2537 14.0757 22.4896 12.2308 21.1293 10.8705C19.769 9.51028 17.9241 8.74609 16.0004 8.74609ZM16.0004 21.7994C14.9182 21.7983 13.8579 21.4941 12.9398 20.9212C12.0216 20.3484 11.2822 19.5298 10.8055 18.5582C10.3287 17.5867 10.1336 16.501 10.2423 15.4243C10.351 14.3475 10.7591 13.3228 11.4204 12.4661L19.5537 20.5994C18.5368 21.3856 17.2857 21.8081 16.0004 21.7994ZM20.5804 19.5528L12.4471 11.4194C13.5614 10.5463 14.9568 10.1114 16.3698 10.1969C17.7829 10.2823 19.1157 10.8821 20.1167 11.8831C21.1177 12.8841 21.7175 14.217 21.803 15.63C21.8884 17.043 21.4535 18.4385 20.5804 19.5528Z" fill="white"/>
</g>
<defs>
<clipPath id="clip0_4022_37013">
<rect width="16" height="16" fill="white" transform="translate(8 8)"/>
</clipPath>
</defs>
</svg>
