<svg width="48" height="48" viewBox="0 0 48 48" fill="none" xmlns="http://www.w3.org/2000/svg">
<g clip-path="url(#clip0_1047_5129)">
<path d="M24.0002 2.24023C19.6965 2.24023 15.4894 3.51644 11.911 5.90746C8.33262 8.29848 5.54359 11.6969 3.89663 15.673C2.24966 19.6492 1.81874 24.0244 2.65836 28.2454C3.49797 32.4664 5.57041 36.3437 8.6136 39.3869C11.6568 42.4301 15.5341 44.5025 19.7551 45.3421C23.9761 46.1817 28.3513 45.7508 32.3274 44.1039C36.3036 42.4569 39.702 39.6679 42.093 36.0894C44.484 32.511 45.7602 28.304 45.7602 24.0002C45.7602 18.2291 43.4677 12.6944 39.3869 8.61359C35.3061 4.5328 29.7714 2.24023 24.0002 2.24023ZM24.0002 41.4002C20.5588 41.4002 17.1947 40.3797 14.3333 38.4678C11.4719 36.5559 9.2417 33.8384 7.92474 30.6589C6.60778 27.4795 6.2632 23.9809 6.93458 20.6057C7.60596 17.2304 9.26315 14.13 11.6966 11.6966C14.13 9.26314 17.2304 7.60595 20.6057 6.93457C23.9809 6.26319 27.4795 6.60777 30.6589 7.92473C33.8384 9.2417 36.5559 11.4719 38.4678 14.3333C40.3798 17.1947 41.4002 20.5588 41.4002 24.0002C41.395 28.6134 39.56 33.0361 36.2981 36.298C33.0361 39.56 28.6134 41.3949 24.0002 41.4002Z" fill="#D68309"/>
<path d="M33.4199 33.8203C33.6291 33.6138 33.7952 33.3678 33.9086 33.0966C34.022 32.8254 34.0804 32.5343 34.0804 32.2403C34.0804 31.9464 34.022 31.6553 33.9086 31.3841C33.7952 31.1129 33.6291 30.8668 33.4199 30.6603L25.4199 22.7603C24.98 22.4228 24.4305 22.2603 23.8778 22.3045C23.3251 22.3486 22.8084 22.5962 22.4276 22.9993C22.0469 23.4024 21.8292 23.9324 21.8167 24.4868C21.8042 25.0411 21.9977 25.5804 22.3599 26.0003L30.3599 33.9003C30.7827 34.2822 31.3363 34.4869 31.9059 34.472C32.4755 34.4572 33.0176 34.2238 33.4199 33.8203ZM21.6399 13.0803V24.2403C21.6104 24.5509 21.6462 24.8642 21.7449 25.1602C21.8435 25.4562 22.003 25.7283 22.2129 25.9591C22.4228 26.1899 22.6787 26.3742 22.964 26.5004C23.2493 26.6266 23.5579 26.6918 23.8699 26.6918C24.1819 26.6918 24.4904 26.6266 24.7758 26.5004C25.0611 26.3742 25.3169 26.1899 25.5269 25.9591C25.7368 25.7283 25.8962 25.4562 25.9949 25.1602C26.0936 24.8642 26.1293 24.5509 26.0999 24.2403V13.0803C26.1293 12.7697 26.0936 12.4564 25.9949 12.1604C25.8962 11.8645 25.7368 11.5924 25.5269 11.3616C25.3169 11.1308 25.0611 10.9464 24.7758 10.8202C24.4904 10.6941 24.1819 10.6289 23.8699 10.6289C23.5579 10.6289 23.2493 10.6941 22.964 10.8202C22.6787 10.9464 22.4228 11.1308 22.2129 11.3616C22.003 11.5924 21.8435 11.8645 21.7449 12.1604C21.6462 12.4564 21.6104 12.7697 21.6399 13.0803Z" fill="#D68309"/>
</g>
<defs>
<clipPath id="clip0_1047_5129">
<rect width="48" height="48" fill="white"/>
</clipPath>
</defs>
</svg>
